<?xml version="1.0"?>
<svg xmlns="http://www.w3.org/2000/svg" xmlns:xlink="http://www.w3.org/1999/xlink" width="512" height="512" viewBox="0 0 128 128"><defs><linearGradient id="a" x1="110.837" y1="110.837" x2="17.163" y2="17.163" gradientUnits="userSpaceOnUse"><stop offset="0" stop-color="#fd4e26"/><stop offset="1" stop-color="#ffbf16"/></linearGradient></defs><path d="M83.1,71.6,96.724,65.6a1.75,1.75,0,0,0,0-3.2l-13.616-6a1.748,1.748,0,0,0-1.581.086l-10.4,6.005a1.751,1.751,0,0,0,0,3.032l10.4,6a1.76,1.76,0,0,0,.875.234A1.735,1.735,0,0,0,83.1,71.6ZM75.5,64l7.009-4.046L91.68,64,82.5,68.043ZM47.123,93.236a1.752,1.752,0,0,0,1.909-.1l12-8.785a1.749,1.749,0,0,0,.716-1.412V70.928a1.75,1.75,0,0,0-2.625-1.516l-10.393,6a1.749,1.749,0,0,0-.864,1.326L46.259,91.531A1.751,1.751,0,0,0,47.123,93.236ZM51.251,78l7-4.041v8.088l-8.083,5.917Zm15,4.928a1.751,1.751,0,0,0,.716,1.412l12.011,8.793a1.75,1.75,0,0,0,2.774-1.6L80.143,76.745a1.746,1.746,0,0,0-.865-1.326l-10.4-6.007a1.75,1.75,0,0,0-2.625,1.516Zm3.5-8.969,7.01,4.047,1.083,9.958L69.75,82.04ZM125.5,89.79a1.75,1.75,0,0,1-1.43,2.02l-9.184,1.567,3.234,8.738a1.752,1.752,0,0,1-1.034,2.249l-7.5,2.777a1.75,1.75,0,0,1-2.249-1.034l-4.92-13.291L89.1,85.132,91.665,108.7a1.75,1.75,0,0,1-2.773,1.6L69.75,96.292v12.823l9.05,10.906a1.751,1.751,0,0,1-.23,2.464l-6.156,5.109a1.751,1.751,0,0,1-2.464-.229L64,120.194l-5.95,7.171a1.752,1.752,0,0,1-2.465.229l-6.156-5.109a1.749,1.749,0,0,1-.229-2.464l9.05-10.906V96.3L39.118,110.305a1.75,1.75,0,0,1-2.774-1.6l2.564-23.578-13.321,7.69-4.92,13.291a1.75,1.75,0,0,1-2.248,1.034l-7.5-2.777a1.752,1.752,0,0,1-1.034-2.249l3.235-8.738L3.933,91.81A1.75,1.75,0,0,1,2.5,89.79L3.848,81.9a1.747,1.747,0,0,1,2.019-1.43l13.97,2.384,13.322-7.691L11.457,65.6a1.75,1.75,0,0,1,0-3.2l21.7-9.566L19.837,45.142,5.867,47.526A1.747,1.747,0,0,1,3.848,46.1L2.5,38.21a1.75,1.75,0,0,1,1.431-2.02l9.184-1.567L9.882,25.885a1.752,1.752,0,0,1,1.034-2.249l7.5-2.777a1.748,1.748,0,0,1,2.248,1.034l4.92,13.291,13.322,7.691L36.345,19.29a1.749,1.749,0,0,1,2.773-1.6L58.25,31.7V18.879L49.2,7.973a1.749,1.749,0,0,1,.229-2.464L55.585.4A1.752,1.752,0,0,1,58.05.629L64,7.8,69.95.629A1.751,1.751,0,0,1,72.414.4L78.57,5.509a1.751,1.751,0,0,1,.23,2.464L69.75,18.879V31.7L88.892,17.69a1.749,1.749,0,0,1,2.773,1.6L89.1,42.868l13.31-7.684,4.92-13.291a1.75,1.75,0,0,1,2.249-1.034l7.5,2.777a1.752,1.752,0,0,1,1.034,2.249l-3.234,8.738,9.184,1.567a1.75,1.75,0,0,1,1.43,2.02L124.151,46.1a1.747,1.747,0,0,1-2.019,1.43l-13.969-2.384-16.3,9.411a1.75,1.75,0,0,1-1.75-3.032L106.96,41.8a1.762,1.762,0,0,1,1.17-.21L121,43.782l.757-4.436-9.538-1.628a1.75,1.75,0,0,1-1.347-2.332l3.359-9.075-4.22-1.563-4.531,12.243a1.762,1.762,0,0,1-.767.908L87.864,47.624a1.749,1.749,0,0,1-2.614-1.7l2.507-23.062L69.034,36.565a1.75,1.75,0,0,1-2.784-1.413v-16.9a1.753,1.753,0,0,1,.4-1.118L74.989,7.084,71.526,4.211l-6.179,7.447a1.81,1.81,0,0,1-2.694,0L56.474,4.211,53.011,7.084,61.347,17.13a1.753,1.753,0,0,1,.4,1.118v16.9a1.751,1.751,0,0,1-2.784,1.412l-18.713-13.7,2.509,23.069a1.751,1.751,0,0,1-2.615,1.7L23.29,37.9a1.756,1.756,0,0,1-.766-.908L17.993,24.748l-4.221,1.563,3.359,9.075a1.749,1.749,0,0,1-1.346,2.332L6.247,39.346,7,43.782l12.868-2.2a1.754,1.754,0,0,1,1.169.21l16.851,9.729a1.75,1.75,0,0,1-.169,3.117L16.5,64l21.226,9.359a1.75,1.75,0,0,1,.169,3.117L21.04,86.205a1.754,1.754,0,0,1-1.169.21L7,84.218l-.756,4.436,9.538,1.628a1.749,1.749,0,0,1,1.346,2.332l-3.359,9.075,4.221,1.563,4.531-12.243a1.756,1.756,0,0,1,.766-.908L40.146,80.37a1.75,1.75,0,0,1,2.615,1.7l-2.508,23.063,18.713-13.7a1.751,1.751,0,0,1,2.784,1.412v16.9a1.752,1.752,0,0,1-.4,1.117L53.011,120.91l3.463,2.873,6.179-7.447a1.81,1.81,0,0,1,2.694,0l6.179,7.447,3.463-2.873-8.336-10.046a1.752,1.752,0,0,1-.4-1.117v-16.9a1.75,1.75,0,0,1,2.784-1.412l18.723,13.706L85.25,82.081a1.75,1.75,0,0,1,2.614-1.7L104.709,90.1a1.762,1.762,0,0,1,.767.908l4.531,12.243,4.22-1.563-3.359-9.075a1.75,1.75,0,0,1,1.347-2.332l9.538-1.628L121,84.218l-12.866,2.2a1.753,1.753,0,0,1-1.17-.21L90.108,76.476a1.75,1.75,0,0,1,.169-3.117L115.14,62.4a1.75,1.75,0,0,1,1.412,3.2L94.846,75.169l13.317,7.689,13.969-2.384a1.747,1.747,0,0,1,2.019,1.43ZM106.288,57.871a1.75,1.75,0,1,1-1.412,3.2l-4.33-1.91a1.75,1.75,0,1,1,1.412-3.2ZM45.5,68.041,52.5,64l-7.773-4.488a1.75,1.75,0,1,1,1.75-3.031l10.4,6a1.751,1.751,0,0,1,0,3.032l-10.393,6A1.747,1.747,0,0,1,44.9,71.6l-13.614-6A1.75,1.75,0,0,1,32.7,62.4ZM61.75,45.059a1.751,1.751,0,0,0-.716-1.412l-12-8.785a1.749,1.749,0,0,0-2.773,1.6l1.609,14.8a1.751,1.751,0,0,0,.865,1.327l10.392,6a1.75,1.75,0,0,0,2.625-1.516Zm-3.5,8.982-7-4.04L50.167,40.03l8.083,5.917Zm8.875,4.547a1.753,1.753,0,0,0,1.75,0l10.4-6.006a1.75,1.75,0,0,0,.865-1.327l1.608-14.793a1.75,1.75,0,0,0-2.774-1.6L66.966,43.654a1.751,1.751,0,0,0-.716,1.412V57.072A1.752,1.752,0,0,0,67.125,58.588ZM69.75,45.954l8.093-5.924L76.76,49.994l-7.01,4.047Z" fill="url(#a)"/></svg>
