<?xml version="1.0" standalone="no"?>
<!DOCTYPE svg PUBLIC "-//W3C//DTD SVG 20010904//EN"
 "http://www.w3.org/TR/2001/REC-SVG-20010904/DTD/svg10.dtd">
<svg version="1.0" xmlns="http://www.w3.org/2000/svg"
 width="1280.000000pt" height="1280.000000pt" viewBox="0 0 1280.000000 1280.000000"
 preserveAspectRatio="xMidYMid meet">
<metadata>
Created by potrace 1.15, written by Peter Selinger 2001-2017
</metadata>
<g transform="translate(0.000000,1280.000000) scale(0.100000,-0.100000)"
fill="#000000" stroke="none">
<path d="M5970 12754 c-254 -21 -330 -29 -490 -50 -1810 -240 -3461 -1282
-4473 -2824 -512 -781 -822 -1593 -974 -2555 l-27 -170 -3 -687 c-4 -753 -4
-765 63 -1148 144 -831 476 -1664 949 -2380 375 -567 851 -1083 1397 -1512
964 -759 2111 -1213 3373 -1335 253 -24 877 -24 1130 0 1153 112 2179 487
3113 1140 518 363 1040 867 1428 1382 600 795 1008 1732 1179 2705 101 577
121 1193 59 1775 -240 2242 -1680 4204 -3759 5123 -625 277 -1245 440 -1970
518 -141 15 -870 28 -995 18z m900 -1328 c629 -70 1159 -223 1715 -496 1022
-501 1835 -1319 2331 -2345 419 -868 576 -1843 453 -2815 -123 -973 -551
-1916 -1209 -2663 -407 -462 -896 -848 -1451 -1145 -492 -263 -1119 -462
-1691 -536 -428 -56 -908 -56 -1336 0 -1340 174 -2573 897 -3392 1989 -586
782 -921 1689 -991 2680 -14 207 -7 630 16 835 65 605 225 1159 490 1695 325
658 778 1228 1340 1684 815 663 1775 1045 2835 1130 171 14 718 6 890 -13z"/>
<path d="M6080 10300 c-1111 -83 -2109 -609 -2799 -1475 -483 -605 -771 -1340
-832 -2119 -16 -210 -7 -582 20 -781 97 -723 371 -1365 829 -1939 111 -141
424 -457 563 -570 580 -472 1240 -757 1999 -862 156 -21 644 -30 821 -15 832
73 1606 399 2234 942 130 113 358 346 466 479 476 582 765 1264 859 2030 21
166 24 590 6 777 -64 664 -280 1269 -650 1818 -589 873 -1531 1484 -2566 1664
-279 49 -687 71 -950 51z m660 -1254 c1180 -183 2088 -1097 2256 -2271 25
-172 25 -557 1 -718 -118 -775 -528 -1422 -1174 -1853 -138 -93 -392 -222
-547 -279 -592 -218 -1265 -218 -1852 0 -140 52 -381 171 -502 249 -336 214
-640 521 -851 861 -353 567 -474 1277 -331 1940 191 884 832 1619 1686 1933
190 70 396 120 614 148 142 18 556 12 700 -10z"/>
<path d="M6210 7924 c-409 -49 -738 -217 -1003 -513 -171 -191 -290 -429 -349
-698 -31 -144 -32 -444 0 -589 68 -311 197 -549 417 -769 369 -370 867 -521
1380 -420 289 58 551 200 771 419 221 222 348 456 416 770 32 145 32 446 0
589 -135 611 -595 1067 -1198 1187 -96 19 -354 34 -434 24z"/>
</g>
</svg>
